<?xml version="1.0" encoding="UTF-8" ?>
<!DOCTYPE svg PUBLIC "-//W3C//DTD SVG 1.1//EN" "http://www.w3.org/Graphics/SVG/1.1/DTD/svg11.dtd">
<svg width="205pt" height="205pt" viewBox="0 0 205 205" version="1.1" xmlns="http://www.w3.org/2000/svg">
<path fill="#30cccb" d=" M 0.00 0.00 L 38.55 0.00 C 39.32 14.36 39.49 28.74 39.68 43.12 C 28.74 32.41 18.77 20.75 7.94 9.94 C 6.16 11.63 4.39 13.34 2.64 15.07 C 12.91 26.35 25.21 35.63 35.28 47.09 C 23.51 47.50 11.78 46.06 0.00 46.11 L 0.00 0.00 Z" />
<path fill="#f9fefd" d=" M 38.55 0.00 L 45.94 0.00 C 45.65 14.37 45.25 28.73 45.18 43.10 C 55.98 32.29 66.02 20.73 76.85 9.96 C 78.58 11.68 80.30 13.42 82.01 15.16 C 71.45 26.23 59.76 36.15 48.98 47.00 C 55.25 47.48 61.53 47.15 67.79 46.70 C 76.80 46.43 85.82 46.12 94.84 46.26 C 94.82 48.56 94.80 50.86 94.79 53.16 C 79.49 53.00 64.20 52.38 48.91 52.19 C 59.76 63.07 71.34 73.20 82.20 84.06 C 80.50 85.82 78.78 87.57 77.04 89.29 C 65.88 78.75 55.97 66.97 45.15 56.09 C 45.21 71.35 45.86 86.60 45.87 101.86 C 43.50 101.84 41.12 101.81 38.74 101.79 C 38.41 94.85 39.30 87.94 39.29 81.00 C 39.29 72.67 39.67 64.35 39.72 56.03 C 28.89 66.86 18.90 78.50 7.94 89.20 C 6.20 87.50 4.48 85.78 2.78 84.05 C 13.35 72.93 25.12 63.01 36.00 52.19 C 24.00 52.31 12.00 52.84 0.00 52.82 L 0.00 46.11 C 11.78 46.06 23.51 47.50 35.28 47.09 C 25.21 35.63 12.91 26.35 2.64 15.07 C 4.39 13.34 6.16 11.63 7.94 9.94 C 18.77 20.75 28.74 32.41 39.68 43.12 C 39.49 28.74 39.32 14.36 38.55 0.00 Z" />
<path fill="#30cccb" d=" M 45.94 0.00 L 205.00 0.00 L 205.00 137.54 C 185.26 137.89 165.53 138.76 145.79 138.80 C 161.52 122.66 178.69 107.95 194.58 91.95 C 192.26 89.34 189.77 86.90 187.10 84.65 C 177.91 93.29 169.78 102.97 160.92 111.93 C 154.12 119.33 147.11 126.53 140.22 133.85 C 140.31 111.14 141.60 88.47 141.80 65.77 C 138.29 65.64 134.78 65.66 131.28 65.87 C 131.23 77.59 132.42 89.27 132.30 100.99 C 132.40 111.95 132.83 122.89 132.85 133.85 C 120.46 120.67 108.04 107.54 95.66 94.36 C 92.60 90.97 89.45 87.66 86.02 84.65 C 83.42 86.89 80.98 89.31 78.76 91.92 C 85.80 99.66 93.88 106.35 101.31 113.69 C 109.88 122.14 119.19 129.84 127.26 138.79 C 104.77 138.83 82.32 137.13 59.83 137.22 C 59.74 140.59 59.73 143.95 59.80 147.32 C 66.87 147.61 73.95 147.32 81.01 146.87 C 91.67 146.57 102.34 146.60 113.00 146.01 C 117.73 145.74 122.48 145.78 127.21 145.97 C 122.30 151.80 116.38 156.63 110.92 161.91 C 103.11 169.45 95.04 176.71 87.23 184.24 C 84.45 187.02 80.99 189.34 79.17 192.93 C 80.82 195.87 83.53 197.97 86.00 200.19 C 91.29 195.42 95.97 190.04 100.85 184.87 C 111.51 173.58 122.07 162.20 132.87 151.04 C 132.85 169.02 132.08 187.02 131.62 205.00 L 0.00 205.00 L 0.00 52.82 C 12.00 52.84 24.00 52.31 36.00 52.19 C 25.12 63.01 13.35 72.93 2.78 84.05 C 4.48 85.78 6.20 87.50 7.94 89.20 C 18.90 78.50 28.89 66.86 39.72 56.03 C 39.67 64.35 39.29 72.67 39.29 81.00 C 39.30 87.94 38.41 94.85 38.74 101.79 C 41.12 101.81 43.50 101.84 45.87 101.86 C 45.86 86.60 45.21 71.35 45.15 56.09 C 55.97 66.97 65.88 78.75 77.04 89.29 C 78.78 87.57 80.50 85.82 82.20 84.06 C 71.34 73.20 59.76 63.07 48.91 52.19 C 64.20 52.38 79.49 53.00 94.79 53.16 C 94.80 50.86 94.82 48.56 94.84 46.26 C 85.82 46.12 76.80 46.43 67.79 46.70 C 61.53 47.15 55.25 47.48 48.98 47.00 C 59.76 36.15 71.45 26.23 82.01 15.16 C 80.30 13.42 78.58 11.68 76.85 9.96 C 66.02 20.73 55.98 32.29 45.18 43.10 C 45.25 28.73 45.65 14.37 45.94 0.00 Z" />
<path fill="#f9fefd" d=" M 131.28 65.87 C 134.78 65.66 138.29 65.64 141.80 65.77 C 141.60 88.47 140.31 111.14 140.22 133.85 C 147.11 126.53 154.12 119.33 160.92 111.93 C 169.78 102.97 177.91 93.29 187.10 84.65 C 189.77 86.90 192.26 89.34 194.58 91.95 C 178.69 107.95 161.52 122.66 145.79 138.80 C 165.53 138.76 185.26 137.89 205.00 137.54 L 205.00 147.36 C 189.01 146.68 172.99 146.68 157.00 145.88 C 153.27 145.75 149.53 145.81 145.80 145.97 C 154.39 155.13 164.01 163.25 172.96 172.05 C 180.14 179.06 187.69 185.68 194.80 192.76 C 192.33 195.37 189.75 197.86 187.02 200.19 C 171.10 184.12 156.07 167.21 140.26 151.03 C 140.07 169.03 141.49 187.00 141.42 205.00 L 131.62 205.00 C 132.08 187.02 132.85 169.02 132.87 151.04 C 122.07 162.20 111.51 173.58 100.85 184.87 C 95.97 190.04 91.29 195.42 86.00 200.19 C 83.53 197.97 80.82 195.87 79.17 192.93 C 80.99 189.34 84.45 187.02 87.23 184.24 C 95.04 176.71 103.11 169.45 110.92 161.91 C 116.38 156.63 122.30 151.80 127.21 145.97 C 122.48 145.78 117.73 145.74 113.00 146.01 C 102.34 146.60 91.67 146.57 81.01 146.87 C 73.95 147.32 66.87 147.61 59.80 147.32 C 59.73 143.95 59.74 140.59 59.83 137.22 C 82.32 137.13 104.77 138.83 127.26 138.79 C 119.19 129.84 109.88 122.14 101.31 113.69 C 93.88 106.35 85.80 99.66 78.76 91.92 C 80.98 89.31 83.42 86.89 86.02 84.65 C 89.45 87.66 92.60 90.97 95.66 94.36 C 108.04 107.54 120.46 120.67 132.85 133.85 C 132.83 122.89 132.40 111.95 132.30 100.99 C 132.42 89.27 131.23 77.59 131.28 65.87 Z" />
<path fill="#30cccb" d=" M 145.80 145.97 C 149.53 145.81 153.27 145.75 157.00 145.88 C 172.99 146.68 189.01 146.68 205.00 147.36 L 205.00 205.00 L 141.42 205.00 C 141.49 187.00 140.07 169.03 140.26 151.03 C 156.07 167.21 171.10 184.12 187.02 200.19 C 189.75 197.86 192.33 195.37 194.80 192.76 C 187.69 185.68 180.14 179.06 172.96 172.05 C 164.01 163.25 154.39 155.13 145.80 145.97 Z" />
</svg>
